<svg id="Layer_1" data-name="Layer 1" xmlns="http://www.w3.org/2000/svg" viewBox="0 0 76 76"><defs><style>.cls-1{fill:#ff642f;}</style></defs><path class="cls-1" d="M38.05,21l.76-.73a13,13,0,0,1,3.4-2.06,7,7,0,0,1,2.31-.29c1.57.37,1.92-.45,2.09-1.68A13.17,13.17,0,0,1,47,14.4c.13-.44,0-1.15.56-1.23s.62.64.8,1.05A126.58,126.58,0,0,1,53,26.6a60.05,60.05,0,0,1,2.86,13.85c.34,5-.3,9.8-3.53,13.92l-.84.84-1,.78-1.06.74-.51.35a27.71,27.71,0,0,1-4.22,1.64,30,30,0,0,1-5.81.74c-1.49,0-1.82-.28-2-1.74-.52-3.66.4-7.06,1.77-10.39a5.71,5.71,0,0,0,.18-.74,10.87,10.87,0,0,0,.32-7.14,8.67,8.67,0,0,0-4.8-5.83c-1-.48-2-.91-2.94-1.39-3.18-1.57-4.23-4.39-4.46-7.69-.07-1,.6-1.1,1.35-1.11a48.43,48.43,0,0,0,6.26-.15c1.24.1,2-.69,2.65-1.55h0A5.11,5.11,0,0,1,38.05,21Zm1.34,3.39a1.07,1.07,0,0,0,1.07-1.05,1,1,0,0,0-2-.12A1.05,1.05,0,0,0,39.39,24.34Z"/><path class="cls-1" d="M18.7,36.55c.05-.42-.11-1.09.74-.72a21.29,21.29,0,0,0,2.62,2.58c.61.52,1,.94,1.82.61a12.32,12.32,0,0,1,5.39-.58,1.46,1.46,0,0,0,1.58-.88c.53-1,1.16-1.9,1.76-2.83.17-.27.26-.73.69-.65s.29.49.37.76c.41,1.37.82,2.74,1.13,4.13a4.08,4.08,0,0,0,1.58,2.38,4.25,4.25,0,0,1,.9,4.42c-.1.34-.21.68-.31,1a9.82,9.82,0,0,1-.63,1.58,17.62,17.62,0,0,0-1.49,8.73,2.16,2.16,0,0,1-2.24,2.37A22,22,0,0,1,20.8,56c-3.13-2.12-5-4.93-4.5-8.9a11.52,11.52,0,0,1,2-4.72m12.72.73a1.2,1.2,0,1,0,1.17,1.32C32.3,43.7,31.86,43.26,31.06,43.14Zm-6.41,2.17A1.17,1.17,0,0,0,23.47,44a1.09,1.09,0,0,0-1.17,1.12,1.06,1.06,0,0,0,1.16,1.23A1.09,1.09,0,0,0,24.65,45.31Z"/></svg>