<svg id="Layer_1" data-name="Layer 1" xmlns="http://www.w3.org/2000/svg" viewBox="0 0 76 76"><defs><style>.cls-1{fill:#ff642f;}.cls-2{fill:#f2f2f2;}</style></defs><path class="cls-1" d="M32.67,31.93c.3.4.56.65.84,1s.69.88,1.17.72c.53-.38.38-.82.15-1.29a27.45,27.45,0,0,0-2.06-3l-.48-.63-.52-.65c-.15-.22-.25-.36-.49-.67-.53-.74-.82-1.12-1.31-1.77a6.35,6.35,0,0,0-.48-.65,9.65,9.65,0,0,0-1.34-1.78l-.35-.48c-.31-.45-.65-.89-.93-1.37a2.38,2.38,0,0,1,.52-2.83,1.72,1.72,0,0,1,2.51-.07c3.33,3.38,7.13,6.43,8.94,11a10.47,10.47,0,0,1-.61,9.83,20.43,20.43,0,0,1-2.13,3.17c-.88,1-.83,4.06,0,5.05a1,1,0,0,0,1.63.07c.74-.7.23.31.46.3l0,.45a9.84,9.84,0,0,0,.55,2.67c.74,1.71,1.75,1.89,3,.53.19-.21.24-.57.63-.53A1.49,1.49,0,0,0,43,52c.68.73,1.35.92,2,0a1.14,1.14,0,0,0,.48-.88c.68-1.23.36-2.46,0-3.71.32-.24.53.12.81.15a1.08,1.08,0,0,0,1.36-1.06,22.53,22.53,0,0,0-.09-5.32c-.26-2.62-.37-5.24-.6-7.86-.11-1.35-.25-2.71-.49-4A8.4,8.4,0,0,1,49,21.8c1.08-1.16,2-.86,2.44.69s.17,2.94.56,4.39a65.1,65.1,0,0,0,2.68,7.55c2.27,5.49,2.52,11-.1,16.43-4,8.2-12.79,11-20.77,6.54a18.16,18.16,0,0,1-3.72-2.58A87.32,87.32,0,0,1,16.42,39a4.59,4.59,0,0,1-1-2.65,2.11,2.11,0,0,1,1.05-2.07,1.77,1.77,0,0,1,2.13.78c1.55,1.89,3,3.83,4.56,5.74.53.66,1.06,1.34,1.65,1.94.43.43,1,.79,1.57.28s.18-1.07-.15-1.49c-1.8-2.3-3.66-4.56-5.47-6.85-1.24-1.57-2.42-3.17-3.64-4.75a3.3,3.3,0,0,1-.77-2.58,2.19,2.19,0,0,1,1.42-1.95c.88-.3,1.5.24,2,.84q2.25,2.67,4.45,5.4c1.58,1.95,3.12,3.94,4.7,5.9.28.36.62.89,1.16.55s.31-.86.11-1.3a28.07,28.07,0,0,0-3.36-4.67c-2.29-3.05-4.66-6-7-9.06a2.62,2.62,0,0,1,.51-3.57c.94-.82,2.07-.7,3.14.38.31.31.58.67.86,1l2.15,2.67"/><path class="cls-1" d="M42.46,38.39c.51,0,1,0,1.55,0a1.09,1.09,0,0,1,1.14.85,1.05,1.05,0,0,1-.43,1.36,4.21,4.21,0,0,0-2,2.8c-.19.56-.46.92-1.1.85a1.09,1.09,0,0,1-1.09-1A3.4,3.4,0,0,0,39.67,41c-.33-.37-.83-.69-.4-1.31s.72-1.32,1.64-1.27l1.54.07Z"/><path class="cls-1" d="M42.87,50.11A4.16,4.16,0,0,1,42.4,47c.18-.66.51-1.16,1.32-1a.5.5,0,0,0,.42.28,3.84,3.84,0,0,1,.68,2.8c-.15.83-.49,1.53-1.52,1.51Z"/><path class="cls-1" d="M39,47.71a2,2,0,0,1,.33-1.11c.3-.64.8-.69,1.32-.24A2.81,2.81,0,0,1,41,49.79c-.5.6-1,.62-1.39-.07A4,4,0,0,1,39,47.71Z"/><path class="cls-1" d="M36.71,44.55a6.19,6.19,0,0,1,.11-.89A2.19,2.19,0,0,1,38,42c.3-.13.48.14.6.35a2.12,2.12,0,0,1,.26,2.18,2.28,2.28,0,0,1-.46.61c-.39.35-.75,1-1.32.78S36.84,45,36.71,44.55Z"/><path class="cls-1" d="M46.4,44.11c0,.59.08,1.12-.42,1.28s-1.57-1.08-1.52-1.7.2-1.3.84-1.42.74.56.9,1A2,2,0,0,1,46.4,44.11Z"/><path class="cls-2" d="M42.87,50.11l.43.45c.19.53-.15,1-.26,1.44a1.49,1.49,0,0,1-.66-.91C43,51,42.77,50.46,42.87,50.11Z"/><path class="cls-2" d="M45.54,51.1a1.14,1.14,0,0,1-.48.88C45.09,51.62,44.9,51.13,45.54,51.1Z"/><path class="cls-2" d="M44.14,46.25a.5.5,0,0,1-.42-.28C44.15,45.63,44.12,46,44.14,46.25Z"/><path class="cls-2" d="M38.24,48.42l0-.45c.14,0,.29,0,.31.21S38.38,48.4,38.24,48.42Z"/><path class="cls-2" d="M45.86,46.92l-.08,0a.32.32,0,0,1,0-.09l.08,0Z"/></svg>