<svg id="Layer_1" data-name="Layer 1" xmlns="http://www.w3.org/2000/svg" viewBox="0 0 76 76"><defs><style>.cls-1{fill:#ff642f;}</style></defs><path class="cls-1" d="M21.89,47.17c0-2.84,0-5.68,0-8.52a1.49,1.49,0,0,0-.91-1.6c-2.61-1.33-3.74-3.7-4.19-6.45a2.5,2.5,0,0,1,4.86-1.15c1.28,3.38,1.28,3.38,4.92,3.38,3.17,0,6.35,0,9.53,0,.84,0,1.18.13,1.16,1.09q-.08,6.66,0,13.31c0,.95-.33,1.16-1.18,1.14a13.61,13.61,0,0,1-5.5-1.13c-1.06-.49-1.09-.09-1.08.78,0,2.54,0,5.08,0,7.62,0,2.16-.9,3-3.07,3.05-4.18,0-4.56-.35-4.56-4.52Z"/><path class="cls-1" d="M54.32,32.83h-.91c-2.22,0-2.25,0-2.74,2.21-.14.6-.31.67-.84.44q-3.9-1.66-7.82-3.27a.73.73,0,0,1-.53-1c.7-4.07,1.37-8.15,2.05-12.22A1.83,1.83,0,0,1,45,17.4a1.66,1.66,0,0,1,2,.89,3.08,3.08,0,0,0,3.51,1.64,5.64,5.64,0,0,1,5.71,2.14,1.22,1.22,0,0,0,1.15.43c1.2,0,2.4,0,3.6,0A1.94,1.94,0,0,1,63,24.59c0,.65,0,1.3,0,1.94a6.36,6.36,0,0,1-6.37,6.3C55.86,32.86,55.09,32.83,54.32,32.83ZM52.78,22.5a1.2,1.2,0,0,0-1.34,1.24,1.18,1.18,0,0,0,1.35,1.33,1.17,1.17,0,0,0,1.27-1.29A1.19,1.19,0,0,0,52.78,22.5Z"/><path class="cls-1" d="M42.36,47l-.12,0c-.77,0-1.55,1-2.12.48s-.19-1.54-.19-2.34c0-3.27,0-6.54,0-9.81,0-1,.2-1.1,1.07-.71,2.74,1.21,5.51,2.37,8.28,3.5a1.21,1.21,0,0,1,.9,1.31c0,5.47,0,10.93,0,16.4,0,1.9-1,2.81-2.87,2.85-4.37.07-4.76-.31-4.76-4.71q0-3.36,0-6.71A.62.62,0,0,0,42.36,47Z"/><path class="cls-1" d="M39.82,30.25A1.22,1.22,0,0,1,38,31.36a3.75,3.75,0,0,1-.71-.55q-6-5.41-12-10.86a3.26,3.26,0,0,1-.67-.77,1.19,1.19,0,0,1,.3-1.52,1,1,0,0,1,1.41-.11,7,7,0,0,1,.8.64Q33,23.49,38.87,28.79C39.32,29.19,39.83,29.55,39.82,30.25Z"/></svg>