<svg id="Layer_1" data-name="Layer 1" xmlns="http://www.w3.org/2000/svg" viewBox="0 0 76 76"><defs><style>.cls-1{fill:#ff642f;}.cls-2{fill:#ffae6c;}</style></defs><path class="cls-1" d="M30.69,35.42a2.44,2.44,0,0,1,1.54-.8c.9.93,1.77,1.91,2.72,2.8s1.31.59,1.6-.5c.32-1.26.6-2.54.89-3.8.41,0,.82,0,1.22-.07A2.29,2.29,0,0,1,41,34.14a10.59,10.59,0,0,0,10.36,4.24c.75-.1,1-.1,1,.75,0,6,0,12.1,0,18.15a2.66,2.66,0,1,1-5.31,0c0-3.34,0-6.68,0-10V45.43L35.38,54.74c1.73,0,3.11,0,4.49,0,1.86,0,3,1.1,3,2.77a2.65,2.65,0,0,1-3,2.65q-5.76,0-11.52,0a8.06,8.06,0,0,1-8.47-8.41c0-5.87,0-11.74,0-17.61,0-2.72-.47-3.29-3.11-3.81a2.73,2.73,0,1,1,.82-5.39,8.21,8.21,0,0,1,7.61,8.23c.05,2,0,4.06,0,6.1,0,.24-.14.54.15.75.44-.11.53-.58.83-.83a18,18,0,0,1,3.19,1.45c.82.36,1.4.13,1.41-.78A19.4,19.4,0,0,0,30.69,35.42Z"/><path class="cls-1" d="M57.77,23.15c0,1.49,0,3,0,4.47a8.08,8.08,0,0,1-16.15.3c-.1-3.25,0-6.5,0-9.75,0-.58.08-1.13.72-1.31s.86.36,1.15.74l2.18,2.94c.22.29.43.58.65.86.92,1.18,5.88,1.21,6.78,0s2-2.68,3-4c.27-.37.55-.76,1.11-.52A1.07,1.07,0,0,1,57.77,18C57.76,19.71,57.77,21.43,57.77,23.15ZM46.9,29c.91,0,1.42-.46,1.45-1.31a1.23,1.23,0,0,0-1.3-1.39A1.35,1.35,0,1,0,46.9,29Zm5.51-2.72A1.27,1.27,0,0,0,51,27.58,1.25,1.25,0,0,0,52.44,29a1.22,1.22,0,0,0,1.33-1.36A1.26,1.26,0,0,0,52.41,26.27Z"/><path class="cls-2" d="M30.69,35.42a19.4,19.4,0,0,1,.12,4.44c0,.91-.59,1.14-1.41.78a18,18,0,0,0-3.19-1.45A11.62,11.62,0,0,1,30.69,35.42Z"/><path class="cls-2" d="M37.44,33.12c-.29,1.26-.57,2.54-.89,3.8-.29,1.09-.79,1.27-1.6.5s-1.82-1.87-2.72-2.8C33.81,33.55,35.65,33.42,37.44,33.12Z"/></svg>